# xmcd
# Track frame offsets:
# 150
# 12787
# 27897
# 43015
# 56830
# 69765
# 83292
# 98567
# 111637
# 122252
# 137907
# 151565
#
# Disc length: 2195 seconds
# Revision: 2
# Processed by: cddbd v1.5.2PL0 Copyright (c) Steve Scherf et al.
# Submitted via: VisiTrax 2.11.2.271 - For more info visit www.synapsa.com
#
DISCID=8608910c
DTITLE=Slim Dusty - Trucks On The Track
DYEAR=1984
DGENRE=Australian Country
TTITLE0=Three Hundred Horses
TTITLE1=Long Black Road
TTITLE2=I'm Married To My Bulldog Mack
TTITLE3=Trucks On The Track
TTITLE4=From Here To There And Back
TTITLE5=Dribbler Bill
TTITLE6=Dieseline Dreams
TTITLE7=Fill 'er Up
TTITLE8=Home Cookin'
TTITLE9=Trucks, Tarps, And Trailers
TTITLE10=Dogs, Dust, And Diesel
TTITLE11=That's Not Me
EXTD=
EXTT0=
EXTT1=
EXTT2=
EXTT3=
EXTT4=
EXTT5=
EXTT6=
EXTT7=
EXTT8=
EXTT9=
EXTT10=
EXTT11=
PLAYORDER=
